<svg width="86" height="20" viewBox="0 0 86 20" fill="none" xmlns="http://www.w3.org/2000/svg">
<rect width="86" height="20" fill="#F5F5F5"/>
<g id="Mobile Responsive" clip-path="url(#clip0_0_1)">
<rect width="375" height="6463" transform="translate(-254 -4832)" fill="#FDFDFD"/>
<g id="Group 17647">
<rect id="Base" x="-254" y="-67" width="375" height="516" rx="12" fill="#201830"/>
<g id="Texts">
<path id="Vector 2" d="M2 2C14.2505 14.074 47.8012 30.9775 84 2" stroke="#936CDD" stroke-width="4"/>
<path id="Subscribe and get update regularly" d="M-227.212 12.312C-228.443 12.312 -229.587 12.0867 -230.644 11.636C-231.684 11.1853 -232.585 10.5613 -233.348 9.764C-234.093 8.94933 -234.639 8.00467 -234.986 6.93L-232.048 5.656C-231.58 6.76533 -230.904 7.64067 -230.02 8.282C-229.136 8.906 -228.139 9.218 -227.03 9.218C-226.406 9.218 -225.869 9.12267 -225.418 8.932C-224.95 8.724 -224.595 8.44667 -224.352 8.1C-224.092 7.75333 -223.962 7.33733 -223.962 6.852C-223.962 6.28 -224.135 5.812 -224.482 5.448C-224.811 5.06667 -225.314 4.772 -225.99 4.564L-229.708 3.368C-231.216 2.9 -232.351 2.198 -233.114 1.262C-233.877 0.326 -234.258 -0.774667 -234.258 -2.04C-234.258 -3.14933 -233.989 -4.12867 -233.452 -4.978C-232.897 -5.82733 -232.135 -6.486 -231.164 -6.954C-230.176 -7.43933 -229.049 -7.682 -227.784 -7.682C-226.623 -7.682 -225.557 -7.474 -224.586 -7.058C-223.615 -6.65933 -222.783 -6.096 -222.09 -5.368C-221.379 -4.65733 -220.851 -3.81667 -220.504 -2.846L-223.416 -1.546C-223.797 -2.51667 -224.369 -3.262 -225.132 -3.782C-225.895 -4.31933 -226.779 -4.588 -227.784 -4.588C-228.373 -4.588 -228.893 -4.484 -229.344 -4.276C-229.795 -4.08533 -230.15 -3.808 -230.41 -3.444C-230.653 -3.09733 -230.774 -2.68133 -230.774 -2.196C-230.774 -1.65867 -230.601 -1.182 -230.254 -0.766001C-229.907 -0.367334 -229.379 -0.0553339 -228.668 0.17L-225.106 1.288C-223.563 1.79067 -222.411 2.484 -221.648 3.368C-220.868 4.252 -220.478 5.344 -220.478 6.644C-220.478 7.75333 -220.764 8.73267 -221.336 9.582C-221.908 10.4313 -222.697 11.0987 -223.702 11.584C-224.707 12.0693 -225.877 12.312 -227.212 12.312ZM-212.536 12.312C-213.628 12.312 -214.581 12.0693 -215.396 11.584C-216.193 11.0987 -216.809 10.4227 -217.242 9.556C-217.658 8.68933 -217.866 7.67533 -217.866 6.514V-2.144H-214.46V6.228C-214.46 6.81733 -214.347 7.33733 -214.122 7.788C-213.879 8.22133 -213.541 8.568 -213.108 8.828C-212.657 9.07067 -212.155 9.192 -211.6 9.192C-211.045 9.192 -210.551 9.07067 -210.118 8.828C-209.685 8.568 -209.347 8.21267 -209.104 7.762C-208.861 7.31133 -208.74 6.774 -208.74 6.15V-2.144H-205.334V12H-208.558V9.218L-208.272 9.712C-208.601 10.5787 -209.147 11.2287 -209.91 11.662C-210.655 12.0953 -211.531 12.312 -212.536 12.312ZM-194.446 12.312C-195.469 12.312 -196.413 12.1127 -197.28 11.714C-198.129 11.298 -198.805 10.7087 -199.308 9.946L-198.97 9.27V12H-202.168V-7.682H-198.762V0.663999L-199.282 -0.0380008C-198.797 -0.800667 -198.138 -1.39 -197.306 -1.806C-196.474 -2.23933 -195.512 -2.456 -194.42 -2.456C-193.085 -2.456 -191.881 -2.12667 -190.806 -1.468C-189.731 -0.809334 -188.882 0.0746663 -188.258 1.184C-187.617 2.29333 -187.296 3.54133 -187.296 4.928C-187.296 6.29733 -187.608 7.54533 -188.232 8.672C-188.856 9.79867 -189.705 10.6913 -190.78 11.35C-191.855 11.9913 -193.077 12.312 -194.446 12.312ZM-194.836 9.192C-194.056 9.192 -193.363 9.01 -192.756 8.646C-192.149 8.282 -191.681 7.77933 -191.352 7.138C-191.005 6.49667 -190.832 5.76 -190.832 4.928C-190.832 4.096 -191.005 3.368 -191.352 2.744C-191.681 2.10267 -192.149 1.6 -192.756 1.236C-193.363 0.854666 -194.056 0.663999 -194.836 0.663999C-195.581 0.663999 -196.257 0.845999 -196.864 1.21C-197.453 1.574 -197.921 2.08533 -198.268 2.744C-198.597 3.38533 -198.762 4.11333 -198.762 4.928C-198.762 5.76 -198.597 6.49667 -198.268 7.138C-197.921 7.77933 -197.453 8.282 -196.864 8.646C-196.257 9.01 -195.581 9.192 -194.836 9.192ZM-179.317 12.312C-180.825 12.312 -182.142 11.9567 -183.269 11.246C-184.378 10.518 -185.141 9.53867 -185.557 8.308L-183.009 7.086C-182.645 7.88333 -182.142 8.50733 -181.501 8.958C-180.842 9.40867 -180.114 9.634 -179.317 9.634C-178.693 9.634 -178.199 9.49533 -177.835 9.218C-177.471 8.94067 -177.289 8.57667 -177.289 8.126C-177.289 7.84867 -177.367 7.62333 -177.523 7.45C-177.662 7.25933 -177.861 7.10333 -178.121 6.982C-178.364 6.84333 -178.632 6.73067 -178.927 6.644L-181.241 5.994C-182.437 5.64733 -183.347 5.11867 -183.971 4.408C-184.578 3.69733 -184.881 2.85667 -184.881 1.886C-184.881 1.01933 -184.664 0.265333 -184.231 -0.376C-183.78 -1.03467 -183.165 -1.546 -182.385 -1.91C-181.588 -2.274 -180.678 -2.456 -179.655 -2.456C-178.32 -2.456 -177.142 -2.13533 -176.119 -1.494C-175.096 -0.852668 -174.368 0.0486661 -173.935 1.21L-176.535 2.432C-176.778 1.79067 -177.185 1.27933 -177.757 0.898C-178.329 0.516666 -178.97 0.325999 -179.681 0.325999C-180.253 0.325999 -180.704 0.455999 -181.033 0.716C-181.362 0.975999 -181.527 1.314 -181.527 1.73C-181.527 1.99 -181.458 2.21533 -181.319 2.406C-181.18 2.59667 -180.99 2.75267 -180.747 2.874C-180.487 2.99533 -180.192 3.108 -179.863 3.212L-177.601 3.888C-176.44 4.23467 -175.547 4.75467 -174.923 5.448C-174.282 6.14133 -173.961 6.99067 -173.961 7.996C-173.961 8.84533 -174.186 9.59933 -174.637 10.258C-175.088 10.8993 -175.712 11.402 -176.509 11.766C-177.306 12.13 -178.242 12.312 -179.317 12.312ZM-164.532 12.312C-165.936 12.312 -167.201 11.9913 -168.328 11.35C-169.437 10.6913 -170.312 9.80733 -170.954 8.698C-171.595 7.57133 -171.916 6.306 -171.916 4.902C-171.916 3.498 -171.595 2.24133 -170.954 1.132C-170.312 0.0226662 -169.437 -0.852668 -168.328 -1.494C-167.201 -2.13533 -165.936 -2.456 -164.532 -2.456C-163.526 -2.456 -162.59 -2.274 -161.724 -1.91C-160.857 -1.56333 -160.112 -1.078 -159.488 -0.454001C-158.846 0.152666 -158.387 0.880666 -158.11 1.73L-161.1 3.03C-161.36 2.31933 -161.802 1.74733 -162.426 1.314C-163.032 0.880666 -163.734 0.663999 -164.532 0.663999C-165.277 0.663999 -165.944 0.845999 -166.534 1.21C-167.106 1.574 -167.556 2.07667 -167.886 2.718C-168.215 3.35933 -168.38 4.096 -168.38 4.928C-168.38 5.76 -168.215 6.49667 -167.886 7.138C-167.556 7.77933 -167.106 8.282 -166.534 8.646C-165.944 9.01 -165.277 9.192 -164.532 9.192C-163.717 9.192 -163.006 8.97533 -162.4 8.542C-161.793 8.10867 -161.36 7.528 -161.1 6.8L-158.11 8.152C-158.387 8.94933 -158.838 9.66867 -159.462 10.31C-160.086 10.934 -160.831 11.428 -161.698 11.792C-162.564 12.1387 -163.509 12.312 -164.532 12.312ZM-155.525 12V-2.144H-152.327V1.002L-152.587 0.534C-152.258 -0.523334 -151.747 -1.26 -151.053 -1.676C-150.343 -2.092 -149.493 -2.3 -148.505 -2.3H-147.673V0.716H-148.895C-149.866 0.716 -150.646 1.01933 -151.235 1.626C-151.825 2.21533 -152.119 3.04733 -152.119 4.122V12H-155.525ZM-145.801 12V-2.144H-142.395V12H-145.801ZM-145.801 -3.73V-7.37H-142.395V-3.73H-145.801ZM-131.528 12.312C-132.551 12.312 -133.495 12.1127 -134.362 11.714C-135.211 11.298 -135.887 10.7087 -136.39 9.946L-136.052 9.27V12H-139.25V-7.682H-135.844V0.663999L-136.364 -0.0380008C-135.879 -0.800667 -135.22 -1.39 -134.388 -1.806C-133.556 -2.23933 -132.594 -2.456 -131.502 -2.456C-130.167 -2.456 -128.963 -2.12667 -127.888 -1.468C-126.813 -0.809334 -125.964 0.0746663 -125.34 1.184C-124.699 2.29333 -124.378 3.54133 -124.378 4.928C-124.378 6.29733 -124.69 7.54533 -125.314 8.672C-125.938 9.79867 -126.787 10.6913 -127.862 11.35C-128.937 11.9913 -130.159 12.312 -131.528 12.312ZM-131.918 9.192C-131.138 9.192 -130.445 9.01 -129.838 8.646C-129.231 8.282 -128.763 7.77933 -128.434 7.138C-128.087 6.49667 -127.914 5.76 -127.914 4.928C-127.914 4.096 -128.087 3.368 -128.434 2.744C-128.763 2.10267 -129.231 1.6 -129.838 1.236C-130.445 0.854666 -131.138 0.663999 -131.918 0.663999C-132.663 0.663999 -133.339 0.845999 -133.946 1.21C-134.535 1.574 -135.003 2.08533 -135.35 2.744C-135.679 3.38533 -135.844 4.11333 -135.844 4.928C-135.844 5.76 -135.679 6.49667 -135.35 7.138C-135.003 7.77933 -134.535 8.282 -133.946 8.646C-133.339 9.01 -132.663 9.192 -131.918 9.192ZM-115.073 12.312C-116.529 12.312 -117.803 11.9827 -118.895 11.324C-119.987 10.6653 -120.837 9.77267 -121.443 8.646C-122.05 7.51933 -122.353 6.27133 -122.353 4.902C-122.353 3.48067 -122.05 2.224 -121.443 1.132C-120.819 0.0226662 -119.979 -0.852668 -118.921 -1.494C-117.847 -2.13533 -116.651 -2.456 -115.333 -2.456C-114.224 -2.456 -113.253 -2.274 -112.421 -1.91C-111.572 -1.546 -110.853 -1.04333 -110.263 -0.402001C-109.674 0.239333 -109.223 0.975999 -108.911 1.808C-108.599 2.62267 -108.443 3.50667 -108.443 4.46C-108.443 4.70267 -108.461 4.954 -108.495 5.214C-108.513 5.474 -108.556 5.69933 -108.625 5.89H-119.545V3.29H-110.549L-112.161 4.512C-112.005 3.71467 -112.049 3.004 -112.291 2.38C-112.517 1.756 -112.898 1.262 -113.435 0.898C-113.955 0.534 -114.588 0.352 -115.333 0.352C-116.044 0.352 -116.677 0.534 -117.231 0.898C-117.786 1.24467 -118.211 1.76467 -118.505 2.458C-118.783 3.134 -118.887 3.95733 -118.817 4.928C-118.887 5.79467 -118.774 6.566 -118.479 7.242C-118.167 7.90067 -117.717 8.412 -117.127 8.776C-116.521 9.14 -115.827 9.322 -115.047 9.322C-114.267 9.322 -113.609 9.15733 -113.071 8.828C-112.517 8.49867 -112.083 8.05667 -111.771 7.502L-109.015 8.854C-109.293 9.53 -109.726 10.128 -110.315 10.648C-110.905 11.168 -111.607 11.5753 -112.421 11.87C-113.219 12.1647 -114.103 12.312 -115.073 12.312ZM-96.9502 12.312C-97.9382 12.312 -98.7962 12.1473 -99.5242 11.818C-100.252 11.4887 -100.816 11.0207 -101.214 10.414C-101.613 9.79 -101.812 9.07067 -101.812 8.256C-101.812 7.476 -101.639 6.78267 -101.292 6.176C-100.946 5.552 -100.408 5.032 -99.6802 4.616C-98.9522 4.2 -98.0335 3.90533 -96.9242 3.732L-92.2962 2.978V5.578L-96.2742 6.254C-96.9502 6.37533 -97.4528 6.592 -97.7822 6.904C-98.1115 7.216 -98.2762 7.62333 -98.2762 8.126C-98.2762 8.61133 -98.0942 9.00133 -97.7302 9.296C-97.3488 9.57333 -96.8808 9.712 -96.3262 9.712C-95.6155 9.712 -94.9915 9.56467 -94.4542 9.27C-93.8995 8.958 -93.4748 8.53333 -93.1802 7.996C-92.8682 7.45867 -92.7122 6.86933 -92.7122 6.228V2.588C-92.7122 1.98133 -92.9548 1.47867 -93.4402 1.08C-93.9082 0.663999 -94.5322 0.455999 -95.3122 0.455999C-96.0402 0.455999 -96.6902 0.655332 -97.2622 1.054C-97.8168 1.43533 -98.2242 1.94667 -98.4842 2.588L-101.266 1.236C-100.989 0.490666 -100.556 -0.150667 -99.9662 -0.688001C-99.3595 -1.24267 -98.6488 -1.676 -97.8342 -1.988C-97.0195 -2.3 -96.1355 -2.456 -95.1822 -2.456C-94.0208 -2.456 -92.9982 -2.23933 -92.1142 -1.806C-91.2302 -1.39 -90.5455 -0.800667 -90.0602 -0.0380008C-89.5575 0.707333 -89.3062 1.58267 -89.3062 2.588V12H-92.5302V9.582L-91.8022 9.53C-92.1662 10.1367 -92.5995 10.648 -93.1022 11.064C-93.6048 11.4627 -94.1768 11.7747 -94.8182 12C-95.4595 12.208 -96.1702 12.312 -96.9502 12.312ZM-86.1581 12V-2.144H-82.9601V0.638L-83.2201 0.143999C-82.8908 -0.705334 -82.3535 -1.34667 -81.6081 -1.78C-80.8455 -2.23067 -79.9615 -2.456 -78.9561 -2.456C-77.9161 -2.456 -76.9975 -2.23067 -76.2001 -1.78C-75.3855 -1.32933 -74.7528 -0.696667 -74.3021 0.118C-73.8515 0.915333 -73.6261 1.84267 -73.6261 2.9V12H-77.0321V3.706C-77.0321 3.082 -77.1535 2.54467 -77.3961 2.094C-77.6388 1.64333 -77.9768 1.29667 -78.4101 1.054C-78.8261 0.793999 -79.3201 0.663999 -79.8921 0.663999C-80.4468 0.663999 -80.9408 0.793999 -81.3741 1.054C-81.8075 1.29667 -82.1455 1.64333 -82.3881 2.094C-82.6308 2.54467 -82.7521 3.082 -82.7521 3.706V12H-86.1581ZM-64.168 12.312C-65.5374 12.312 -66.7594 11.9913 -67.834 11.35C-68.9087 10.6913 -69.758 9.79867 -70.382 8.672C-71.006 7.54533 -71.318 6.29733 -71.318 4.928C-71.318 3.54133 -71.006 2.29333 -70.382 1.184C-69.758 0.0746663 -68.9087 -0.809334 -67.834 -1.468C-66.742 -2.12667 -65.5287 -2.456 -64.194 -2.456C-63.1194 -2.456 -62.166 -2.23933 -61.334 -1.806C-60.4847 -1.39 -59.8174 -0.800667 -59.332 -0.0380008L-59.852 0.663999V-7.682H-56.446V12H-59.67V9.27L-59.306 9.946C-59.7914 10.7087 -60.4674 11.298 -61.334 11.714C-62.2007 12.1127 -63.1454 12.312 -64.168 12.312ZM-63.804 9.192C-63.024 9.192 -62.3394 9.01 -61.75 8.646C-61.1607 8.282 -60.7014 7.77933 -60.372 7.138C-60.0254 6.49667 -59.852 5.76 -59.852 4.928C-59.852 4.11333 -60.0254 3.38533 -60.372 2.744C-60.7014 2.08533 -61.1607 1.574 -61.75 1.21C-62.3394 0.845999 -63.024 0.663999 -63.804 0.663999C-64.5667 0.663999 -65.2514 0.854666 -65.858 1.236C-66.4647 1.6 -66.9414 2.10267 -67.288 2.744C-67.6174 3.368 -67.782 4.096 -67.782 4.928C-67.782 5.76 -67.6174 6.49667 -67.288 7.138C-66.9414 7.77933 -66.4647 8.282 -65.858 8.646C-65.2514 9.01 -64.5667 9.192 -63.804 9.192ZM-41.7922 17.72C-42.8495 17.72 -43.8289 17.5467 -44.7302 17.2C-45.6315 16.8533 -46.4115 16.368 -47.0702 15.744C-47.7115 15.1373 -48.1795 14.418 -48.4742 13.586L-45.3022 12.39C-45.0942 13.0487 -44.6869 13.5773 -44.0802 13.976C-43.4562 14.392 -42.6935 14.6 -41.7922 14.6C-41.0989 14.6 -40.4922 14.47 -39.9722 14.21C-39.4349 13.95 -39.0189 13.5687 -38.7242 13.066C-38.4295 12.5807 -38.2822 11.9913 -38.2822 11.298V8.074L-37.6322 8.854C-38.1175 9.70333 -38.7675 10.3447 -39.5822 10.778C-40.3969 11.2113 -41.3242 11.428 -42.3642 11.428C-43.6815 11.428 -44.8602 11.1247 -45.9002 10.518C-46.9402 9.91133 -47.7549 9.07933 -48.3442 8.022C-48.9335 6.96467 -49.2282 5.77733 -49.2282 4.46C-49.2282 3.12533 -48.9335 1.938 -48.3442 0.898C-47.7549 -0.142 -46.9489 -0.956667 -45.9262 -1.546C-44.9035 -2.15267 -43.7422 -2.456 -42.4422 -2.456C-41.3849 -2.456 -40.4575 -2.23067 -39.6602 -1.78C-38.8455 -1.34667 -38.1695 -0.714 -37.6322 0.118L-38.1002 0.975999V-2.144H-34.8762V11.298C-34.8762 12.5287 -35.1795 13.6293 -35.7862 14.6C-36.3755 15.5707 -37.1902 16.3333 -38.2302 16.888C-39.2529 17.4427 -40.4402 17.72 -41.7922 17.72ZM-41.9482 8.282C-41.2202 8.282 -40.5875 8.126 -40.0502 7.814C-39.4955 7.48467 -39.0622 7.034 -38.7502 6.462C-38.4382 5.89 -38.2822 5.23133 -38.2822 4.486C-38.2822 3.758 -38.4469 3.108 -38.7762 2.536C-39.0882 1.94667 -39.5215 1.48733 -40.0762 1.158C-40.6135 0.828666 -41.2375 0.663999 -41.9482 0.663999C-42.6589 0.663999 -43.3002 0.828666 -43.8722 1.158C-44.4442 1.48733 -44.8949 1.94667 -45.2242 2.536C-45.5362 3.108 -45.6922 3.758 -45.6922 4.486C-45.6922 5.214 -45.5362 5.864 -45.2242 6.436C-44.8949 7.008 -44.4529 7.45867 -43.8982 7.788C-43.3262 8.11733 -42.6762 8.282 -41.9482 8.282ZM-24.9872 12.312C-26.4432 12.312 -27.7172 11.9827 -28.8092 11.324C-29.9012 10.6653 -30.7506 9.77267 -31.3572 8.646C-31.9639 7.51933 -32.2672 6.27133 -32.2672 4.902C-32.2672 3.48067 -31.9639 2.224 -31.3572 1.132C-30.7332 0.0226662 -29.8926 -0.852668 -28.8352 -1.494C-27.7606 -2.13533 -26.5646 -2.456 -25.2472 -2.456C-24.1379 -2.456 -23.1672 -2.274 -22.3352 -1.91C-21.4859 -1.546 -20.7666 -1.04333 -20.1772 -0.402001C-19.5879 0.239333 -19.1372 0.975999 -18.8252 1.808C-18.5132 2.62267 -18.3572 3.50667 -18.3572 4.46C-18.3572 4.70267 -18.3746 4.954 -18.4092 5.214C-18.4266 5.474 -18.4699 5.69933 -18.5392 5.89H-29.4593V3.29H-20.4632L-22.0752 4.512C-21.9192 3.71467 -21.9626 3.004 -22.2052 2.38C-22.4306 1.756 -22.8119 1.262 -23.3492 0.898C-23.8692 0.534 -24.5019 0.352 -25.2472 0.352C-25.9579 0.352 -26.5906 0.534 -27.1452 0.898C-27.6999 1.24467 -28.1246 1.76467 -28.4192 2.458C-28.6966 3.134 -28.8006 3.95733 -28.7312 4.928C-28.8006 5.79467 -28.6879 6.566 -28.3932 7.242C-28.0812 7.90067 -27.6306 8.412 -27.0412 8.776C-26.4346 9.14 -25.7412 9.322 -24.9612 9.322C-24.1812 9.322 -23.5226 9.15733 -22.9852 8.828C-22.4306 8.49867 -21.9972 8.05667 -21.6852 7.502L-18.9292 8.854C-19.2066 9.53 -19.6399 10.128 -20.2292 10.648C-20.8186 11.168 -21.5206 11.5753 -22.3352 11.87C-23.1326 12.1647 -24.0166 12.312 -24.9872 12.312ZM-9.32733 12.156C-10.922 12.156 -12.1613 11.7227 -13.0453 10.856C-13.912 9.972 -14.3453 8.73267 -14.3453 7.138V0.898H-16.7893V-2.144H-16.5293C-15.836 -2.144 -15.2987 -2.326 -14.9173 -2.69C-14.536 -3.054 -14.3453 -3.58267 -14.3453 -4.276V-5.368H-10.9393V-2.144H-7.68933V0.898H-10.9393V6.956C-10.9393 7.424 -10.8613 7.82267 -10.7053 8.152C-10.532 8.48133 -10.272 8.73267 -9.92533 8.906C-9.56133 9.07933 -9.10199 9.166 -8.54733 9.166C-8.42599 9.166 -8.28733 9.15733 -8.13133 9.14C-7.95799 9.12267 -7.79333 9.10533 -7.63733 9.088V12C-7.87999 12.0347 -8.15733 12.0693 -8.46933 12.104C-8.78133 12.1387 -9.06733 12.156 -9.32733 12.156ZM4.63 12.312C3.538 12.312 2.58467 12.0693 1.77 11.584C0.972667 11.0987 0.357333 10.4227 -0.076 9.556C-0.492 8.68933 -0.7 7.67533 -0.7 6.514V-2.144H2.706V6.228C2.706 6.81733 2.81867 7.33733 3.044 7.788C3.28667 8.22133 3.62467 8.568 4.058 8.828C4.50867 9.07067 5.01133 9.192 5.566 9.192C6.12067 9.192 6.61467 9.07067 7.048 8.828C7.48133 8.568 7.81933 8.21267 8.062 7.762C8.30467 7.31133 8.426 6.774 8.426 6.15V-2.144H11.832V12H8.608V9.218L8.894 9.712C8.56467 10.5787 8.01867 11.2287 7.256 11.662C6.51067 12.0953 5.63533 12.312 4.63 12.312ZM14.9981 17.2V-2.144H18.1961V0.663999L17.8841 -0.0380008C18.3694 -0.800667 19.0281 -1.39 19.8601 -1.806C20.6921 -2.23933 21.6541 -2.456 22.7461 -2.456C24.0808 -2.456 25.2854 -2.12667 26.3601 -1.468C27.4348 -0.809334 28.2841 0.0746663 28.9081 1.184C29.5494 2.29333 29.8701 3.54133 29.8701 4.928C29.8701 6.29733 29.5581 7.54533 28.9341 8.672C28.3101 9.79867 27.4608 10.6913 26.3861 11.35C25.3114 11.9913 24.0894 12.312 22.7201 12.312C21.6974 12.312 20.7528 12.1127 19.8861 11.714C19.0368 11.298 18.3608 10.7087 17.8581 9.946L18.4041 9.27V17.2H14.9981ZM22.3301 9.192C23.1101 9.192 23.8034 9.01 24.4101 8.646C25.0168 8.282 25.4848 7.77933 25.8141 7.138C26.1608 6.49667 26.3341 5.76 26.3341 4.928C26.3341 4.096 26.1608 3.368 25.8141 2.744C25.4848 2.10267 25.0168 1.6 24.4101 1.236C23.8034 0.854666 23.1101 0.663999 22.3301 0.663999C21.5848 0.663999 20.9088 0.845999 20.3021 1.21C19.7128 1.574 19.2448 2.08533 18.8981 2.744C18.5688 3.38533 18.4041 4.11333 18.4041 4.928C18.4041 5.76 18.5688 6.49667 18.8981 7.138C19.2448 7.77933 19.7128 8.282 20.3021 8.646C20.9088 9.01 21.5848 9.192 22.3301 9.192ZM39.0449 12.312C37.6755 12.312 36.4535 11.9913 35.3789 11.35C34.3042 10.6913 33.4549 9.79867 32.8309 8.672C32.2069 7.54533 31.8949 6.29733 31.8949 4.928C31.8949 3.54133 32.2069 2.29333 32.8309 1.184C33.4549 0.0746663 34.3042 -0.809334 35.3789 -1.468C36.4709 -2.12667 37.6842 -2.456 39.0189 -2.456C40.0935 -2.456 41.0469 -2.23933 41.8789 -1.806C42.7282 -1.39 43.3955 -0.800667 43.8809 -0.0380008L43.3609 0.663999V-7.682H46.7669V12H43.5429V9.27L43.9069 9.946C43.4215 10.7087 42.7455 11.298 41.8789 11.714C41.0122 12.1127 40.0675 12.312 39.0449 12.312ZM39.4089 9.192C40.1889 9.192 40.8735 9.01 41.4629 8.646C42.0522 8.282 42.5115 7.77933 42.8409 7.138C43.1875 6.49667 43.3609 5.76 43.3609 4.928C43.3609 4.11333 43.1875 3.38533 42.8409 2.744C42.5115 2.08533 42.0522 1.574 41.4629 1.21C40.8735 0.845999 40.1889 0.663999 39.4089 0.663999C38.6462 0.663999 37.9615 0.854666 37.3549 1.236C36.7482 1.6 36.2715 2.10267 35.9249 2.744C35.5955 3.368 35.4309 4.096 35.4309 4.928C35.4309 5.76 35.5955 6.49667 35.9249 7.138C36.2715 7.77933 36.7482 8.282 37.3549 8.646C37.9615 9.01 38.6462 9.192 39.4089 9.192ZM54.2256 12.312C53.2376 12.312 52.3796 12.1473 51.6516 11.818C50.9236 11.4887 50.3603 11.0207 49.9616 10.414C49.5629 9.79 49.3636 9.07067 49.3636 8.256C49.3636 7.476 49.5369 6.78267 49.8836 6.176C50.2303 5.552 50.7676 5.032 51.4956 4.616C52.2236 4.2 53.1423 3.90533 54.2516 3.732L58.8796 2.978V5.578L54.9016 6.254C54.2256 6.37533 53.7229 6.592 53.3936 6.904C53.0643 7.216 52.8996 7.62333 52.8996 8.126C52.8996 8.61133 53.0816 9.00133 53.4456 9.296C53.8269 9.57333 54.2949 9.712 54.8496 9.712C55.5603 9.712 56.1843 9.56467 56.7216 9.27C57.2763 8.958 57.7009 8.53333 57.9956 7.996C58.3076 7.45867 58.4636 6.86933 58.4636 6.228V2.588C58.4636 1.98133 58.2209 1.47867 57.7356 1.08C57.2676 0.663999 56.6436 0.455999 55.8636 0.455999C55.1356 0.455999 54.4856 0.655332 53.9136 1.054C53.3589 1.43533 52.9516 1.94667 52.6916 2.588L49.9096 1.236C50.1869 0.490666 50.6203 -0.150667 51.2096 -0.688001C51.8163 -1.24267 52.5269 -1.676 53.3416 -1.988C54.1563 -2.3 55.0403 -2.456 55.9936 -2.456C57.1549 -2.456 58.1776 -2.23933 59.0616 -1.806C59.9456 -1.39 60.6303 -0.800667 61.1156 -0.0380008C61.6183 0.707333 61.8696 1.58267 61.8696 2.588V12H58.6456V9.582L59.3736 9.53C59.0096 10.1367 58.5763 10.648 58.0736 11.064C57.5709 11.4627 56.9989 11.7747 56.3576 12C55.7163 12.208 55.0056 12.312 54.2256 12.312ZM71.2117 12.156C69.6171 12.156 68.3777 11.7227 67.4937 10.856C66.6271 9.972 66.1937 8.73267 66.1937 7.138V0.898H63.7497V-2.144H64.0097C64.7031 -2.144 65.2404 -2.326 65.6217 -2.69C66.0031 -3.054 66.1937 -3.58267 66.1937 -4.276V-5.368H69.5997V-2.144H72.8497V0.898H69.5997V6.956C69.5997 7.424 69.6777 7.82267 69.8337 8.152C70.0071 8.48133 70.2671 8.73267 70.6137 8.906C70.9777 9.07933 71.4371 9.166 71.9917 9.166C72.1131 9.166 72.2517 9.15733 72.4077 9.14C72.5811 9.12267 72.7457 9.10533 72.9017 9.088V12C72.6591 12.0347 72.3817 12.0693 72.0697 12.104C71.7577 12.1387 71.4717 12.156 71.2117 12.156ZM82.085 12.312C80.629 12.312 79.355 11.9827 78.263 11.324C77.171 10.6653 76.3217 9.77267 75.715 8.646C75.1083 7.51933 74.805 6.27133 74.805 4.902C74.805 3.48067 75.1083 2.224 75.715 1.132C76.339 0.0226662 77.1797 -0.852668 78.237 -1.494C79.3117 -2.13533 80.5077 -2.456 81.825 -2.456C82.9343 -2.456 83.905 -2.274 84.737 -1.91C85.5863 -1.546 86.3057 -1.04333 86.895 -0.402001C87.4843 0.239333 87.935 0.975999 88.247 1.808C88.559 2.62267 88.715 3.50667 88.715 4.46C88.715 4.70267 88.6977 4.954 88.663 5.214C88.6457 5.474 88.6023 5.69933 88.533 5.89H77.613V3.29H86.609L84.997 4.512C85.153 3.71467 85.1097 3.004 84.867 2.38C84.6417 1.756 84.2603 1.262 83.723 0.898C83.203 0.534 82.5703 0.352 81.825 0.352C81.1143 0.352 80.4817 0.534 79.927 0.898C79.3723 1.24467 78.9477 1.76467 78.653 2.458C78.3757 3.134 78.2717 3.95733 78.341 4.928C78.2717 5.79467 78.3843 6.566 78.679 7.242C78.991 7.90067 79.4417 8.412 80.031 8.776C80.6377 9.14 81.331 9.322 82.111 9.322C82.891 9.322 83.5497 9.15733 84.087 8.828C84.6417 8.49867 85.075 8.05667 85.387 7.502L88.143 8.854C87.8657 9.53 87.4323 10.128 86.843 10.648C86.2537 11.168 85.5517 11.5753 84.737 11.87C83.9397 12.1647 83.0557 12.312 82.085 12.312ZM-234.414 48V33.856H-231.216V37.002L-231.476 36.534C-231.147 35.4767 -230.635 34.74 -229.942 34.324C-229.231 33.908 -228.382 33.7 -227.394 33.7H-226.562V36.716H-227.784C-228.755 36.716 -229.535 37.0193 -230.124 37.626C-230.713 38.2153 -231.008 39.0473 -231.008 40.122V48H-234.414ZM-217.981 48.312C-219.437 48.312 -220.711 47.9827 -221.803 47.324C-222.895 46.6653 -223.745 45.7727 -224.351 44.646C-224.958 43.5193 -225.261 42.2713 -225.261 40.902C-225.261 39.4807 -224.958 38.224 -224.351 37.132C-223.727 36.0227 -222.887 35.1473 -221.829 34.506C-220.755 33.8647 -219.559 33.544 -218.241 33.544C-217.132 33.544 -216.161 33.726 -215.329 34.09C-214.48 34.454 -213.761 34.9567 -213.171 35.598C-212.582 36.2393 -212.131 36.976 -211.819 37.808C-211.507 38.6227 -211.351 39.5067 -211.351 40.46C-211.351 40.7027 -211.369 40.954 -211.403 41.214C-211.421 41.474 -211.464 41.6993 -211.533 41.89H-222.453V39.29H-213.457L-215.069 40.512C-214.913 39.7147 -214.957 39.004 -215.199 38.38C-215.425 37.756 -215.806 37.262 -216.343 36.898C-216.863 36.534 -217.496 36.352 -218.241 36.352C-218.952 36.352 -219.585 36.534 -220.139 36.898C-220.694 37.2447 -221.119 37.7647 -221.413 38.458C-221.691 39.134 -221.795 39.9573 -221.725 40.928C-221.795 41.7947 -221.682 42.566 -221.387 43.242C-221.075 43.9007 -220.625 44.412 -220.035 44.776C-219.429 45.14 -218.735 45.322 -217.955 45.322C-217.175 45.322 -216.517 45.1573 -215.979 44.828C-215.425 44.4987 -214.991 44.0567 -214.679 43.502L-211.923 44.854C-212.201 45.53 -212.634 46.128 -213.223 46.648C-213.813 47.168 -214.515 47.5753 -215.329 47.87C-216.127 48.1647 -217.011 48.312 -217.981 48.312ZM-201.905 53.72C-202.963 53.72 -203.942 53.5467 -204.843 53.2C-205.745 52.8533 -206.525 52.368 -207.183 51.744C-207.825 51.1373 -208.293 50.418 -208.587 49.586L-205.415 48.39C-205.207 49.0487 -204.8 49.5773 -204.193 49.976C-203.569 50.392 -202.807 50.6 -201.905 50.6C-201.212 50.6 -200.605 50.47 -200.085 50.21C-199.548 49.95 -199.132 49.5687 -198.837 49.066C-198.543 48.5807 -198.395 47.9913 -198.395 47.298V44.074L-197.745 44.854C-198.231 45.7033 -198.881 46.3447 -199.695 46.778C-200.51 47.2113 -201.437 47.428 -202.477 47.428C-203.795 47.428 -204.973 47.1247 -206.013 46.518C-207.053 45.9113 -207.868 45.0793 -208.457 44.022C-209.047 42.9647 -209.341 41.7773 -209.341 40.46C-209.341 39.1253 -209.047 37.938 -208.457 36.898C-207.868 35.858 -207.062 35.0433 -206.039 34.454C-205.017 33.8473 -203.855 33.544 -202.555 33.544C-201.498 33.544 -200.571 33.7693 -199.773 34.22C-198.959 34.6533 -198.283 35.286 -197.745 36.118L-198.213 36.976V33.856H-194.989V47.298C-194.989 48.5287 -195.293 49.6293 -195.899 50.6C-196.489 51.5707 -197.303 52.3333 -198.343 52.888C-199.366 53.4427 -200.553 53.72 -201.905 53.72ZM-202.061 44.282C-201.333 44.282 -200.701 44.126 -200.163 43.814C-199.609 43.4847 -199.175 43.034 -198.863 42.462C-198.551 41.89 -198.395 41.2313 -198.395 40.486C-198.395 39.758 -198.56 39.108 -198.889 38.536C-199.201 37.9467 -199.635 37.4873 -200.189 37.158C-200.727 36.8287 -201.351 36.664 -202.061 36.664C-202.772 36.664 -203.413 36.8287 -203.985 37.158C-204.557 37.4873 -205.008 37.9467 -205.337 38.536C-205.649 39.108 -205.805 39.758 -205.805 40.486C-205.805 41.214 -205.649 41.864 -205.337 42.436C-205.008 43.008 -204.566 43.4587 -204.011 43.788C-203.439 44.1173 -202.789 44.282 -202.061 44.282ZM-186.765 48.312C-187.857 48.312 -188.81 48.0693 -189.625 47.584C-190.422 47.0987 -191.037 46.4227 -191.471 45.556C-191.887 44.6893 -192.095 43.6753 -192.095 42.514V33.856H-188.689V42.228C-188.689 42.8173 -188.576 43.3373 -188.351 43.788C-188.108 44.2213 -187.77 44.568 -187.337 44.828C-186.886 45.0707 -186.383 45.192 -185.829 45.192C-185.274 45.192 -184.78 45.0707 -184.347 44.828C-183.913 44.568 -183.575 44.2127 -183.333 43.762C-183.09 43.3113 -182.969 42.774 -182.969 42.15V33.856H-179.563V48H-182.787V45.218L-182.501 45.712C-182.83 46.5787 -183.376 47.2287 -184.139 47.662C-184.884 48.0953 -185.759 48.312 -186.765 48.312ZM-176.396 48V28.318H-172.99V48H-176.396ZM-165.556 48.312C-166.544 48.312 -167.402 48.1473 -168.13 47.818C-168.858 47.4887 -169.421 47.0207 -169.82 46.414C-170.218 45.79 -170.418 45.0707 -170.418 44.256C-170.418 43.476 -170.244 42.7827 -169.898 42.176C-169.551 41.552 -169.014 41.032 -168.286 40.616C-167.558 40.2 -166.639 39.9053 -165.53 39.732L-160.902 38.978V41.578L-164.88 42.254C-165.556 42.3753 -166.058 42.592 -166.388 42.904C-166.717 43.216 -166.882 43.6233 -166.882 44.126C-166.882 44.6113 -166.7 45.0013 -166.336 45.296C-165.954 45.5733 -165.486 45.712 -164.932 45.712C-164.221 45.712 -163.597 45.5647 -163.06 45.27C-162.505 44.958 -162.08 44.5333 -161.786 43.996C-161.474 43.4587 -161.318 42.8693 -161.318 42.228V38.588C-161.318 37.9813 -161.56 37.4787 -162.046 37.08C-162.514 36.664 -163.138 36.456 -163.918 36.456C-164.646 36.456 -165.296 36.6553 -165.868 37.054C-166.422 37.4353 -166.83 37.9467 -167.09 38.588L-169.872 37.236C-169.594 36.4907 -169.161 35.8493 -168.572 35.312C-167.965 34.7573 -167.254 34.324 -166.44 34.012C-165.625 33.7 -164.741 33.544 -163.788 33.544C-162.626 33.544 -161.604 33.7607 -160.72 34.194C-159.836 34.61 -159.151 35.1993 -158.666 35.962C-158.163 36.7073 -157.912 37.5827 -157.912 38.588V48H-161.136V45.582L-160.408 45.53C-160.772 46.1367 -161.205 46.648 -161.708 47.064C-162.21 47.4627 -162.782 47.7747 -163.424 48C-164.065 48.208 -164.776 48.312 -165.556 48.312ZM-154.764 48V33.856H-151.566V37.002L-151.826 36.534C-151.496 35.4767 -150.985 34.74 -150.292 34.324C-149.581 33.908 -148.732 33.7 -147.744 33.7H-146.912V36.716H-148.134C-149.104 36.716 -149.884 37.0193 -150.474 37.626C-151.063 38.2153 -151.358 39.0473 -151.358 40.122V48H-154.764ZM-145.039 48V28.318H-141.633V48H-145.039ZM-136.772 53.746C-137.154 53.746 -137.526 53.7113 -137.89 53.642C-138.254 53.59 -138.584 53.4947 -138.878 53.356V50.496C-138.653 50.548 -138.384 50.6 -138.072 50.652C-137.743 50.704 -137.44 50.73 -137.162 50.73C-136.382 50.73 -135.819 50.548 -135.472 50.184C-135.108 49.82 -134.788 49.3433 -134.51 48.754L-133.574 46.57L-133.626 49.43L-139.788 33.856H-136.122L-131.806 45.348H-133.106L-128.816 33.856H-125.124L-131.286 49.43C-131.65 50.3487 -132.092 51.1287 -132.612 51.77C-133.132 52.4113 -133.739 52.8967 -134.432 53.226C-135.108 53.5727 -135.888 53.746 -136.772 53.746Z" fill="white"/>
</g>
</g>
</g>
<defs>
<clipPath id="clip0_0_1">
<rect width="375" height="6463" fill="white" transform="translate(-254 -4832)"/>
</clipPath>
</defs>
</svg>
